<?xml version="1.0" standalone="no"?><!DOCTYPE svg PUBLIC "-//W3C//DTD SVG 1.1//EN" "http://www.w3.org/Graphics/SVG/1.1/DTD/svg11.dtd"><svg t="1635916043968" class="icon" viewBox="0 0 1024 1024" version="1.1" xmlns="http://www.w3.org/2000/svg" p-id="66245" width="64" height="64" xmlns:xlink="http://www.w3.org/1999/xlink"><defs><style type="text/css"></style></defs><path d="M810.666667 85.76H256c-51.456 0-128 34.090667-128 128v597.333333c0 93.909333 76.544 128 128 128h640v-85.333333H256.512C236.8 853.248 213.333333 845.44 213.333333 811.093333c0-4.309333 0.384-8.149333 1.024-11.648 4.778667-24.533333 24.874667-30.592 42.112-31.018666H853.333333c0.768 0 1.322667-0.384 2.090667-0.426667H896V171.093333c0-47.061333-38.272-85.333333-85.333333-85.333333z m0 597.333333H213.333333v-469.333333c0-34.389333 23.466667-42.154667 42.666667-42.666667h298.666667v298.666667l85.333333-42.666667 85.333333 42.666667v-298.666667h85.333334v512z" p-id="66246" fill="#e6e6e6"></path></svg>