<?xml version="1.0" standalone="no"?><!DOCTYPE svg PUBLIC "-//W3C//DTD SVG 1.1//EN" "http://www.w3.org/Graphics/SVG/1.1/DTD/svg11.dtd"><svg t="1635915719680" class="icon" viewBox="0 0 1059 1024" version="1.1" xmlns="http://www.w3.org/2000/svg" p-id="60655" width="66.1875" height="64" xmlns:xlink="http://www.w3.org/1999/xlink"><defs><style type="text/css"></style></defs><path d="M215.573333 925.191111c-40.106667-25.114074-65.054815-71.857778-65.054814-122.097778V114.133333h-36.740741c-62.743704 0-113.777778 55.620741-113.777778 124.005926v661.854815c0 68.373333 51.045926 124.005926 113.777778 124.005926h259.555555zM512.568889 114.133333h1.185185v82.666667h-1.185185z" fill="#e6e6e6" p-id="60656"></path><path d="M528.983704 113.576296L364.728889 13.57037c-28.977778-18.145185-63.537778-18.085926-92.444445 0.154074-28.693333 18.10963-45.831111 50.417778-45.831111 86.435556v660.278519c0 50.204444 24.888889 96.983704 65.031111 122.074074L526.008889 1024h2.974815zM945.777778 114.133333H605.76V1024h340.017778c62.743704 0 113.777778-55.632593 113.777778-124.005926V238.139259c0-68.385185-51.045926-124.005926-113.777778-124.005926z" fill="#e6e6e6" p-id="60657"></path></svg>