<?xml version="1.0" standalone="no"?><!DOCTYPE svg PUBLIC "-//W3C//DTD SVG 1.1//EN" "http://www.w3.org/Graphics/SVG/1.1/DTD/svg11.dtd"><svg t="1635917295561" class="icon" viewBox="0 0 1024 1024" version="1.1" xmlns="http://www.w3.org/2000/svg" p-id="9969" width="64" height="64" xmlns:xlink="http://www.w3.org/1999/xlink"><defs><style type="text/css"></style></defs><path d="M637.70081687 658.24513925a206.00121726 206.00121726 0 0 1-110.9393408-20.18923491 72.99575241 72.99575241 0 0 1-27.18952253-51.23398993 11.26133227 11.26133227 0 0 0-11.46423955-11.15987803 2375.32947938 2375.32947938 0 0 0-48.19038542 0 10.70333871 10.70333871 0 0 0-11.71787276 9.43517028 118.64980214 118.64980214 0 0 0 38.19722161 93.54007479 202.45034751 202.45034751 0 0 0 113.01913599 42.55971929 408.95883237 408.95883237 0 0 0 128.49078697-5.47848597 158.57173266 158.57173266 0 0 0 85.11943857-45.85695582 118.5990762 118.5990762 0 0 0 20.08778188-113.17131734 94.80824324 94.80824324 0 0 0-62.39386795-55.5457605c-64.93020364-22.82702486-135.13598715-21.05158998-201.38508519-38.40012768-11.51496548-3.55087093-25.56626784-7.50755524-30.68966752-19.68196851a43.37134723 43.37134723 0 0 1 14.40638981-48.44401981 129.75895424 129.75895424 0 0 1 68.48107457-17.04417855 206.45775775 206.45775775 0 0 1 95.51841695 13.69621492 72.84357226 72.84357226 0 0 1 34.84925795 50.32090891 12.32659343 12.32659343 0 0 0 11.56569258 11.97150598c15.92819029 0.30436032 31.85638174 0.05072712 47.83529916 0.10145305a11.56569259 11.56569259 0 0 0 12.52949952-8.52208927 123.46884151 123.46884151 0 0 0-60.21261851-106.83047634 298.27312478 298.27312478 0 0 0-163.23859068-25.0082731 177.79716066 177.79716066 0 0 0-110.38134724 44.38588126 110.33062015 110.33062015 0 0 0-22.01539693 114.74384494 97.90257367 97.90257367 0 0 0 61.78514729 53.87177866c64.77802348 23.3850184 135.74470781 15.87746434 201.08072483 36.57396691 12.78313392 4.31177176 27.59533711 10.95697193 31.5012943 25.10972733a50.21945468 50.21945468 0 0 1-13.69621492 47.98747812 150.65836406 150.65836406 0 0 1-90.95301198 22.26903132z m295.17879435-428.38716647q-189.61648647-107.2362897-379.3851531-214.32040045a85.06871262 85.06871262 0 0 0-83.03964337 0L92.49001027 228.99561891a78.22060517 78.22060517 0 0 0-40.83501153 68.07525999l0 429.90896812a78.77859871 78.77859871 0 0 0 42.40753912 68.73470898c36.16815232 19.6819685 71.3217706 41.39300507 108.20009781 59.80680511a155.42667631 155.42667631 0 0 0 138.88976536 3.80450415 107.89573749 107.89573749 0 0 0 50.47308789-97.44603318c0.25363321-141.88264157 0-283.76528192 0.10145305-425.59719636a11.15987921 11.15987921 0 0 0-10.50043143-12.9353141 2107.94892826 2107.94892826 0 0 0-48.34256559 0 10.65261159 10.65261159 0 0 0-11.56569257 10.80479178c-0.20290729 140.96956057 0.05072712 281.93911993-0.10145305 422.95940644a47.68311897 47.68311897 0 0 1-30.94330076 44.79169583 77.71333758 77.71333758 0 0 1-62.90113556-8.42063623l-100.5403624-56.81392773a12.02223309 12.02223309 0 0 1-6.84810747-11.92078004L119.98389314 299.30285546a13.13822137 13.13822137 0 0 1 7.96409574-13.18894848q188.34831801-106.12030261 376.64591012-212.39278423a13.08749426 13.08749426 0 0 1 14.812202 0l376.69663724 212.34205829a13.29040153 13.29040153 0 0 1 7.91336862 13.18894729l0 425.49574334a12.2758663 12.2758663 0 0 1-6.79738034 12.07296019q-185.45689488 104.90286129-371.16742416 209.50136106c-5.88429935 3.2465106-12.88458698 8.57281638-19.78342155 4.56540497-32.46510241-18.36307293-64.42293722-37.43632077-96.78658538-55.95157385a10.44970432 10.44970432 0 0 0-11.66714683-0.7101749 264.69203527 264.69203527 0 0 1-44.74096871 20.89940982c-7.00028761 2.84069603-15.62382995 3.65232398-20.44286814 10.14534399a66.75636563 66.75636563 0 0 0 21.91394387 15.72528418l113.42494938 65.58965141a82.6845571 82.6845571 0 0 0 83.95272553 2.3334296q189.00776582-106.526116 378.01553161-213.25513926a78.93077888 78.93077888 0 0 0 42.40753912-68.68398187L972.34500126 297.0708789a78.11915213 78.11915213 0 0 0-39.46539004-67.21290612z" p-id="9970" fill="#e6e6e6"></path></svg>