<?xml version="1.0" standalone="no"?><!DOCTYPE svg PUBLIC "-//W3C//DTD SVG 1.1//EN" "http://www.w3.org/Graphics/SVG/1.1/DTD/svg11.dtd"><svg t="1635848985076" class="icon" viewBox="0 0 1024 1024" version="1.1" xmlns="http://www.w3.org/2000/svg" p-id="40341" width="64" height="64" xmlns:xlink="http://www.w3.org/1999/xlink"><defs><style type="text/css"></style></defs><path d="M260.565333 982.328889c-40.874667 0-82.133333-12.017778-118.186666-37.034667l-7.594667-5.276444c-94.065778-65.322667-117.461333-195.015111-52.138667-289.080889l198.129778-264.362667c31.047111-44.743111 78.535111-75.264 133.134222-85.105778a206.222222 206.222222 0 0 1 155.320889 33.806223l7.594667 5.262222a208.412444 208.412444 0 0 1 80.711111 111.644444 28.444444 28.444444 0 1 1-54.556444 16.128 149.148444 149.148444 0 0 0-58.581334-81.038222l-7.594666-5.262222a149.745778 149.745778 0 0 0-112.796445-24.561778 149.859556 149.859556 0 0 0-97.109333 62.407111L128.782222 684.202667c-46.833778 67.470222-29.852444 161.635556 38.456889 209.080889l7.594667 5.276444c68.280889 47.416889 162.460444 30.464 209.905778-37.831111l60.529777-87.125333a28.501333 28.501333 0 0 1 39.594667-7.125334 28.472889 28.472889 0 0 1 7.125333 39.594667l-60.529777 87.111111c-40.291556 58.026667-105.088 89.144889-170.894223 89.144889z" fill="#e6e6e6" p-id="40342"></path><path d="M573.112889 725.944889c-40.917333 0-82.261333-12.003556-118.371556-37.063111l-7.651555-5.333334a208.256 208.256 0 0 1-80.625778-111.573333 28.444444 28.444444 0 1 1 54.556444-16.128 149.12 149.12 0 0 0 58.552889 81.009778l7.651556 5.333333c68.252444 47.388444 162.432 30.407111 209.877333-37.888l198.115556-264.391111c46.848-67.470222 29.866667-161.635556-38.442667-209.080889l-7.537778-5.191111a149.888 149.888 0 0 0-112.867555-24.618667 149.859556 149.859556 0 0 0-97.109334 62.407112l-60.515555 87.111111a28.430222 28.430222 0 1 1-46.72-32.440889l60.515555-87.111111a206.264889 206.264889 0 0 1 133.745778-85.944889 206.392889 206.392889 0 0 1 155.335111 33.834666l7.523556 5.191112c94.151111 65.393778 117.532444 195.086222 52.195555 289.137777l-198.115555 264.391111c-39.893333 57.415111-104.448 88.348444-170.112 88.348445z" fill="#e6e6e6" p-id="40343"></path><path d="M750.364444 470.840889a14.193778 14.193778 0 0 1-11.363555-22.741333l7.793778-10.382223a14.222222 14.222222 0 0 1 22.741333 17.052445l-7.793778 10.382222a14.122667 14.122667 0 0 1-11.377778 5.688889zM782.890667 427.463111a14.193778 14.193778 0 0 1-11.363556-22.741333l62.947556-83.968a99.982222 99.982222 0 0 0 16.128-75.093334 100.295111 100.295111 0 0 0-41.784889-65.024l-4.878222-3.370666a14.236444 14.236444 0 0 1 16.199111-23.395556l4.892444 3.384889c28.401778 19.726222 47.416889 49.322667 53.560889 83.342222s-1.336889 68.408889-21.048889 96.796445l-63.246222 84.394666a14.264889 14.264889 0 0 1-11.406222 5.674667z" fill="#e6e6e6" p-id="40344"></path></svg>