<?xml version="1.0" standalone="no"?><!DOCTYPE svg PUBLIC "-//W3C//DTD SVG 1.1//EN" "http://www.w3.org/Graphics/SVG/1.1/DTD/svg11.dtd"><svg t="1651213841173" class="icon" viewBox="0 0 1024 1024" version="1.1" xmlns="http://www.w3.org/2000/svg" p-id="6454" width="64" height="64" xmlns:xlink="http://www.w3.org/1999/xlink"><defs><style type="text/css">@font-face { font-family: feedback-iconfont; src: url("//at.alicdn.com/t/font_1031158_u69w8yhxdu.woff2?t=1630033759944") format("woff2"), url("//at.alicdn.com/t/font_1031158_u69w8yhxdu.woff?t=1630033759944") format("woff"), url("//at.alicdn.com/t/font_1031158_u69w8yhxdu.ttf?t=1630033759944") format("truetype"); }
</style></defs><path d="M85.333333 384m85.333334 0l682.666666 0q85.333333 0 85.333334 85.333333l0 384q0 85.333333-85.333334 85.333334l-682.666666 0q-85.333333 0-85.333334-85.333334l0-384q0-85.333333 85.333334-85.333333Z" p-id="6455" fill="#e6e6e6"></path><path d="M213.333333 213.333333m21.333334 0l554.666666 0q21.333333 0 21.333334 21.333334l0 42.666666q0 21.333333-21.333334 21.333334l-554.666666 0q-21.333333 0-21.333334-21.333334l0-42.666666q0-21.333333 21.333334-21.333334Z" p-id="6456" fill="#e6e6e6"></path><path d="M298.666667 42.666667m21.333333 0l384 0q21.333333 0 21.333333 21.333333l0 42.666667q0 21.333333-21.333333 21.333333l-384 0q-21.333333 0-21.333333-21.333333l0-42.666667q0-21.333333 21.333333-21.333333Z" p-id="6457" fill="#e6e6e6"></path><path d="M462.208 853.333333C419.029333 853.333333 384 824.149333 384 788.138667s34.986667-65.194667 78.208-65.194667c9.173333 0 17.92 1.322667 26.069333 3.712v-180.906667c0-13.354667 8.362667-25.173333 20.608-29.141333l149.930667-45.866667c18.858667-6.144 38.058667 8.533333 38.058667 29.184v45.866667c0 15.274667-14.293333 25.045333-26.026667 27.818667-16.938667 4.053333-60.416 12.757333-130.389333 26.112v189.781333a35.712 35.712 0 0 1-0.554667 6.485333c-4.693333 32.298667-37.674667 57.344-77.653333 57.344z" p-id="6458" fill="#e6e6e6"></path></svg>