<?xml version="1.0" standalone="no"?><!DOCTYPE svg PUBLIC "-//W3C//DTD SVG 1.1//EN" "http://www.w3.org/Graphics/SVG/1.1/DTD/svg11.dtd"><svg t="1636082114770" class="icon" viewBox="0 0 1133 1024" version="1.1" xmlns="http://www.w3.org/2000/svg" p-id="6366" width="70.8125" height="64" xmlns:xlink="http://www.w3.org/1999/xlink"><defs><style type="text/css"></style></defs><path d="M1101.896311 787.868457L703.280416 97.437179c-74.982992-129.916239-197.622293-129.916239-272.681616 0L31.995627 787.868457c-74.982992 129.878073-13.58701 236.131543 136.328086 236.131543h797.244512c149.965984 0 211.311078-106.253469 136.328086-236.131543z m-606.339392-404.557031a68.164043 68.164043 0 1 1 136.328087 0v228.104012a68.164043 68.164043 0 1 1-136.328087 0z m71.395411 520.237443a80.453417 80.453417 0 1 1 80.466139-80.466139 80.555193 80.555193 0 0 1-80.466139 80.453417z" p-id="6367" fill="#e6e6e6"></path></svg>