<?xml version="1.0" standalone="no"?><!DOCTYPE svg PUBLIC "-//W3C//DTD SVG 1.1//EN" "http://www.w3.org/Graphics/SVG/1.1/DTD/svg11.dtd"><svg t="1636008195980" class="icon" viewBox="0 0 1024 1024" version="1.1" xmlns="http://www.w3.org/2000/svg" p-id="7350" width="32" height="32" xmlns:xlink="http://www.w3.org/1999/xlink"><defs><style type="text/css"></style></defs><path d="M492.8 516.8l-60 180 24.8-2.4c28-2.4 22.4 10.4 97.6-224.8L598.4 336H576c-22.4 0-23.2 2.4-83.2 180.8zM144 516v164h64V468l70.4 105.6c68.8 104.8 70.4 106.4 100 106.4H408V352h-64v212l-70.4-105.6C204.8 353.6 203.2 352 174.4 352H144v164z m576-146.4c-4 10.4-30.4 84-58.4 164L610.4 680h34.4c32.8 0 34.4-0.8 45.6-34.4l11.2-33.6h116.8l8.8 32c8.8 30.4 11.2 32 43.2 34.4 18.4 1.6 33.6 0 33.6-4 0-3.2-24.8-76.8-55.2-162.4l-54.4-156-32.8-2.4c-28.8-2.4-34.4 0-41.6 16z m60 120c7.2 27.2 15.2 54.4 17.6 60 3.2 8-6.4 10.4-37.6 10.4-36 0-41.6-1.6-37.6-14.4 1.6-7.2 10.4-36 17.6-63.2 8-27.2 16.8-48 20-46.4 3.2 1.6 12 25.6 20 53.6z" fill="#1296db" p-id="7351"></path></svg>