<?xml version="1.0" standalone="no"?><!DOCTYPE svg PUBLIC "-//W3C//DTD SVG 1.1//EN" "http://www.w3.org/Graphics/SVG/1.1/DTD/svg11.dtd"><svg t="1635918141523" class="icon" viewBox="0 0 1024 1024" version="1.1" xmlns="http://www.w3.org/2000/svg" p-id="24380" width="64" height="64" xmlns:xlink="http://www.w3.org/1999/xlink"><defs><style type="text/css"></style></defs><path d="M739.74 488.38c41.347-44.655 100.887-64.502 155.465-51.271 26.462 6.616-138.927 120.734-62.848 190.197 76.079 69.463 173.658-104.195 183.582-79.387 16.538 51.27 3.307 114.119-34.732 158.773-44.655 47.963-109.157 64.502-167.043 47.963-6.615-1.654-13.23 0-18.192 4.962L604.12 969.66c-23.155 24.809-61.194 24.809-86.002 3.308-24.808-23.154-24.808-61.194-3.308-86.002l191.85-208.39c4.962-6.615 6.616-13.23 3.309-19.846-23.155-54.578-11.578-122.388 29.77-170.35zM571.043 911.774c-8.27-8.27-19.846-8.27-26.462 0l-1.654 1.654c-8.27 8.27-8.27 19.847 0 26.462l1.654 1.654c9.923 9.924 21.5 9.924 28.116 0 8.27-9.923 8.27-21.5 0-28.116zM313.037 447.032c8.27 0 13.231 6.616 13.231 14.885v13.231c0 61.194 51.27 114.119 114.118 110.81 57.886-1.653 102.541-51.27 102.541-109.156v-14.885c-1.654-8.27 4.962-14.885 13.231-14.885h133.965c11.577 0 18.193 11.578 11.577 21.5-23.154 29.77-38.04 67.81-38.04 110.811 0 28.116 8.27 52.925 18.194 74.425 1.653 6.616 0 13.231-3.308 16.539L493.31 855.542c-3.308 1.654-6.616 3.308-9.924 3.308H114.571c-59.54 0-107.503-47.963-107.503-110.81V460.263c0-6.615 4.962-13.23 13.231-13.23z m157.12 0c8.269 0 16.538 4.962 18.192 13.231 1.654 4.962 1.654 9.924 1.654 14.885 0 29.77-24.809 54.579-54.578 54.579-29.77 0-54.579-23.155-54.579-54.579 0-4.961 1.654-9.923 3.308-14.885 3.308-8.269 9.923-13.23 18.193-13.23z m69.462-415.125c29.77 0 54.579 23.154 54.579 54.578v36.386c0 9.923 8.269 18.192 18.192 18.192h122.388c71.117 0 129.003 57.886 129.003 129.004V369.3c0 9.923-8.27 18.192-18.193 18.192H25.261c-9.924 0-18.193-8.269-18.193-18.192V251.874c0-59.54 47.963-107.503 107.503-110.81h140.58c9.923 0 18.193-8.27 18.193-18.193v-18.193c0-39.693 33.077-72.771 72.77-72.771z m-24.808 56.232H356.038c-11.577 0-24.808 11.577-24.808 28.116v9.923c0 9.924 8.27 18.193 18.192 18.193H523.08c11.578 0 19.847-9.923 16.54-18.193v-9.923c0-16.539-9.924-28.116-24.809-28.116z" p-id="24381" fill="#e6e6e6"></path></svg>